<?xml version="1.0" standalone="no"?>
<!DOCTYPE svg PUBLIC "-//W3C//DTD SVG 20010904//EN"
 "http://www.w3.org/TR/2001/REC-SVG-20010904/DTD/svg10.dtd">
<svg version="1.0" xmlns="http://www.w3.org/2000/svg"
 width="500.000000pt" height="500.000000pt" viewBox="0 0 500.000000 500.000000"
 preserveAspectRatio="xMidYMid meet">

<g transform="translate(0.000000,500.000000) scale(0.100000,-0.100000)"
fill="#000000" stroke="none">
<path d="M1161 2854 c0 -11 3 -14 6 -6 3 7 2 16 -1 19 -3 4 -6 -2 -5 -13z"/>
<path d="M1580 1963 c0 -15 8 -22 30 -25 20 -3 30 0 30 9 0 7 -8 13 -18 13
-10 0 -23 5 -30 12 -9 9 -12 7 -12 -9z"/>
<path d="M1716 1972 c-10 -17 12 -33 40 -29 27 4 28 5 7 12 -13 4 -23 11 -23
16 0 11 -17 12 -24 1z"/>
<path d="M2218 1974 c-5 -4 -8 -71 -8 -148 1 -99 4 -136 11 -124 11 20 8 284
-3 272z"/>
<path d="M3121 1840 c-1 -97 3 -140 9 -130 12 18 12 227 0 255 -5 12 -9 -35
-9 -125z"/>
<path d="M3278 1974 c-5 -4 -7 -66 -7 -138 1 -115 2 -124 10 -76 11 63 8 226
-3 214z"/>
<path d="M1322 1840 c0 -84 3 -127 8 -115 11 25 11 191 0 225 -5 15 -8 -28 -8
-110z"/>
<path d="M1492 1835 l1 -140 8 124 c5 76 5 130 -1 140 -6 10 -9 -31 -8 -124z"/>
<path d="M2320 1907 c0 -36 4 -68 9 -71 8 -5 4 124 -5 133 -2 2 -4 -25 -4 -62z"/>
<path d="M2482 1958 c3 -7 13 -15 24 -17 16 -3 17 -1 5 13 -16 19 -34 21 -29
4z"/>
<path d="M2654 1850 c0 -69 1 -97 3 -62 2 34 2 90 0 125 -2 34 -3 6 -3 -63z"/>
<path d="M1394 1937 c-7 -20 -2 -47 11 -50 14 -3 19 43 6 56 -7 7 -12 6 -17
-6z"/>
<path d="M2121 1934 c0 -11 3 -14 6 -6 3 7 2 16 -1 19 -3 4 -6 -2 -5 -13z"/>
<path d="M3031 1943 c0 -5 4 -17 9 -28 8 -18 9 -17 9 8 1 15 -3 27 -9 27 -5 0
-10 -3 -9 -7z"/>
<path d="M3401 1934 c0 -11 3 -14 6 -6 3 7 2 16 -1 19 -3 4 -6 -2 -5 -13z"/>
<path d="M2953 1840 c0 -47 2 -66 4 -42 2 23 2 61 0 85 -2 23 -4 4 -4 -43z"/>
<path d="M1892 1890 c0 -14 2 -19 5 -12 2 6 2 18 0 25 -3 6 -5 1 -5 -13z"/>
<path d="M1753 1845 c-3 -9 -3 -18 -1 -21 3 -3 8 4 11 16 6 23 -1 27 -10 5z"/>
<path d="M1150 1828 c0 -19 2 -20 10 -8 13 19 13 30 0 30 -5 0 -10 -10 -10
-22z"/>
<path d="M2523 1795 c0 -33 2 -45 4 -27 2 18 2 45 0 60 -2 15 -4 0 -4 -33z"/>
<path d="M3382 1830 c0 -14 2 -19 5 -12 2 6 2 18 0 25 -3 6 -5 1 -5 -13z"/>
<path d="M1937 1820 c-3 -14 -2 -29 3 -34 16 -16 23 1 13 31 l-9 27 -7 -24z"/>
<path d="M2805 1820 c3 -5 14 -10 23 -10 15 0 15 2 2 10 -20 13 -33 13 -25 0z"/>
<path d="M3440 1800 c0 -11 5 -20 10 -20 6 0 10 9 10 20 0 11 -4 20 -10 20 -5
0 -10 -9 -10 -20z"/>
<path d="M3024 1788 c3 -13 6 -30 6 -37 0 -11 3 -12 11 -4 14 14 4 63 -12 63
-7 0 -9 -9 -5 -22z"/>
<path d="M1871 1774 c0 -11 3 -14 6 -6 3 7 2 16 -1 19 -3 4 -6 -2 -5 -13z"/>
<path d="M2296 1782 c-4 -7 -5 -34 -1 -60 5 -37 9 -43 16 -29 13 22 -3 109
-15 89z"/>
<path d="M3371 1754 c0 -11 3 -14 6 -6 3 7 2 16 -1 19 -3 4 -6 -2 -5 -13z"/>
<path d="M1863 1715 c0 -22 2 -30 4 -17 2 12 2 30 0 40 -3 9 -5 -1 -4 -23z"/>
<path d="M1935 1740 c-3 -6 1 -17 9 -26 15 -14 16 -14 16 5 0 23 -16 36 -25
21z"/>
<path d="M3436 1743 c-11 -11 -6 -23 9 -23 8 0 15 4 15 9 0 13 -16 22 -24 14z"/>
<path d="M1581 1724 c0 -11 3 -14 6 -6 3 7 2 16 -1 19 -3 4 -6 -2 -5 -13z"/>
<path d="M3361 1714 c0 -11 3 -14 6 -6 3 7 2 16 -1 19 -3 4 -6 -2 -5 -13z"/>
</g>
</svg>
